<?xml version="1.0" standalone="no"?>
<!DOCTYPE svg PUBLIC "-//W3C//DTD SVG 20010904//EN"
 "http://www.w3.org/TR/2001/REC-SVG-20010904/DTD/svg10.dtd">
<svg version="1.0" xmlns="http://www.w3.org/2000/svg"
 width="88.000000pt" height="88.000000pt" viewBox="0 0 888.000000 888.000000"
 preserveAspectRatio="xMidYMid meet">

<g transform="translate(0.000000,888.000000) scale(0.100000,-0.100000)"
fill="#398564" stroke="none">
<path d="M4233 7244 c-182 -40 -376 -162 -490 -309 -85 -110 -154 -271 -173
-404 -5 -36 -10 -129 -10 -207 l0 -141 -55 -6 c-97 -10 -178 -68 -231 -167
-18 -34 -19 -78 -19 -1260 0 -1200 0 -1226 20 -1265 27 -56 96 -120 152 -142
45 -17 102 -18 978 -21 1058 -3 1035 -4 1119 69 25 22 57 65 72 95 26 52 28
67 30 205 2 82 0 149 -4 149 -456 10 -497 14 -635 60 -139 47 -228 101 -329
203 l-87 87 -125 0 c-125 0 -126 0 -158 29 l-33 29 -3 181 -4 181 -149 0
c-155 0 -185 6 -209 43 -19 30 -26 213 -10 261 19 58 46 66 220 66 l150 0 0
160 c0 246 7 254 202 248 168 -4 162 3 166 -228 l3 -180 160 0 161 0 29 -29
c29 -29 29 -29 29 -156 0 -127 0 -127 -29 -156 l-29 -29 -161 0 -161 0 0 -159
0 -159 89 -84 c149 -140 335 -227 531 -248 52 -5 192 -10 310 -10 230 0 291
-9 392 -53 79 -35 170 -124 210 -205 l33 -67 0 -160 c0 -154 -1 -162 -28 -220
-51 -109 -161 -196 -292 -231 -60 -17 -234 -18 -307 -3 -29 6 -129 35 -223 64
-93 29 -225 65 -293 80 -109 24 -137 27 -250 22 -226 -9 -378 -66 -510 -191
-102 -96 -212 -237 -251 -318 -17 -37 -43 -76 -56 -86 -14 -11 -25 -27 -25
-35 0 -8 -6 -20 -14 -26 -8 -7 -21 -26 -30 -44 -20 -39 -39 -70 -47 -77 -3 -3
-12 -18 -20 -34 -22 -47 -36 -42 -69 25 -16 34 -36 69 -44 78 -7 9 -19 33 -25
53 -7 20 -18 41 -25 47 -16 14 -204 17 -217 4 -7 -7 -8 -74 -3 -202 l7 -191
51 0 c28 0 56 4 63 8 14 9 19 135 8 210 -4 29 -4 52 1 52 5 0 23 -26 39 -57
17 -31 45 -76 63 -100 17 -24 32 -47 32 -51 0 -5 13 -20 28 -35 30 -29 68 -35
95 -15 16 12 115 147 155 210 9 16 22 26 27 25 14 -5 26 -185 15 -222 -15 -48
14 -146 49 -165 20 -10 192 -50 219 -50 27 0 9 30 -45 75 -32 25 -64 56 -72
67 -9 14 -18 69 -24 164 l-10 142 37 119 c44 138 77 194 156 266 223 201 488
228 895 92 236 -80 286 -89 455 -90 161 0 242 15 340 65 121 61 203 139 263
251 47 85 57 140 57 316 1 178 -9 236 -56 329 -99 197 -302 321 -579 355 -49
6 -93 16 -97 22 -4 6 -7 413 -8 905 0 887 -1 895 -22 943 -38 91 -152 169
-245 169 -29 0 -33 3 -34 28 -1 15 -3 88 -5 162 -2 74 -8 163 -14 198 -25 150
-117 324 -232 441 -108 109 -281 204 -432 235 -96 20 -314 20 -403 0z m352
-349 c175 -46 321 -195 371 -380 9 -31 14 -104 14 -192 l0 -143 -535 0 -535 0
0 123 c0 141 16 226 59 321 56 123 203 243 338 275 63 15 223 12 288 -4z"/>
<path d="M4766 2580 c-18 -6 -20 -18 -21 -156 -1 -82 1 -170 4 -197 l6 -47
115 -2 c63 0 172 0 243 1 l127 1 0 44 0 45 -171 0 c-94 0 -174 3 -177 6 -3 3
-5 71 -3 150 1 111 -1 146 -11 149 -29 9 -94 13 -112 6z"/>
<path d="M5485 2574 c-109 -34 -113 -41 -114 -202 -1 -103 12 -132 76 -163 46
-23 58 -24 248 -24 189 0 203 1 253 24 80 36 92 57 92 162 0 102 0 103 -114
171 l-70 42 -160 3 c-123 2 -173 -1 -211 -13z m386 -82 c25 -10 26 -13 26
-106 1 -53 -2 -98 -6 -100 -4 -3 -88 -6 -186 -7 -212 -2 -205 -6 -205 112 0
66 3 78 21 90 26 17 311 26 350 11z"/>
<path d="M6360 2580 c-75 -5 -128 -27 -160 -66 -17 -20 -19 -246 -2 -266 6 -8
33 -25 59 -38 46 -23 56 -24 276 -24 249 -1 250 -1 245 58 l-3 29 -216 1
c-270 1 -265 -1 -255 121 4 60 10 83 23 93 14 11 58 13 211 8 105 -4 204 -3
218 0 22 6 25 11 22 46 l-3 40 -170 2 c-93 0 -204 -1 -245 -4z"/>
<path d="M6963 2583 l-33 -4 3 -200 2 -199 57 0 c35 0 60 5 65 13 4 6 8 44 8
82 l1 70 57 3 c66 3 81 -5 186 -100 l64 -58 83 0 c45 0 85 4 88 9 7 10 -89 94
-166 145 -32 21 -58 41 -58 46 0 4 26 28 58 54 31 26 81 65 109 89 53 42 53
42 25 48 -15 3 -54 4 -86 2 -52 -2 -65 -7 -95 -36 -20 -18 -60 -53 -89 -77
-47 -38 -59 -43 -105 -44 -29 0 -58 3 -64 7 -9 5 -13 33 -13 76 0 63 -2 69
-22 75 -13 3 -27 5 -33 4 -5 -1 -25 -3 -42 -5z"/>
<path d="M1710 2568 c-61 -30 -77 -93 -44 -164 29 -62 55 -68 279 -74 192 -5
200 -6 200 -25 0 -19 -9 -20 -240 -26 -132 -3 -241 -7 -242 -7 -9 -6 -1 -61
10 -70 6 -5 107 -13 224 -17 256 -8 307 -1 352 51 53 59 39 135 -29 168 -33
16 -67 19 -257 21 -120 1 -221 3 -225 4 -5 0 -8 14 -8 31 l0 30 262 2 c231 3
263 5 266 19 1 9 -5 26 -15 38 -18 22 -24 23 -263 27 -180 3 -252 1 -270 -8z"/>
<path d="M2469 2572 l-77 -3 -5 -32 c-2 -18 -2 -36 0 -40 3 -5 42 -8 86 -7 45
1 101 1 124 1 l42 -1 -1 -150 c-1 -82 2 -153 6 -157 9 -9 103 -9 112 0 4 3 6
66 6 139 0 73 2 141 5 150 4 16 18 18 119 17 62 0 118 3 124 6 5 3 10 17 10
30 0 49 -11 52 -251 51 -123 0 -258 -2 -300 -4z"/>
<path d="M3153 2380 l1 -201 65 3 66 3 1 175 c0 96 -3 185 -8 198 -7 19 -14
22 -67 22 l-59 0 1 -200z"/>
<path d="M4480 2430 c-14 -4 -44 -5 -67 -2 -23 2 -53 2 -67 -2 -23 -6 -26 -11
-26 -51 l0 -45 116 0 c135 0 154 7 154 55 0 18 -3 36 -7 38 -18 10 -80 14
-103 7z"/>
</g>
</svg>
